<svg width="33" height="32" viewBox="0 0 33 32" fill="currentColor"
  xmlns="http://www.w3.org/2000/svg">
  <g clip-path="url(#clip0_1128_5033)">
    <path
      d="M29.8151 23.62H28.2851V22.1H26.7651V20.57H25.2451V17.53H23.7151V20.57H22.2001V22.1H20.6801V23.62H17.6301V25.14H20.6801V26.67H22.2001V28.19H23.7201V29.72H25.2501V31.24H29.8201V29.72H31.3401V25.14H29.8201L29.8151 23.62ZM29.8151 28.19H28.2851V26.67H26.7651V25.14H25.2451V23.62H26.7651V25.14H28.2851V26.67H29.8151V28.19Z"
    />
    <path d="M26.7651 9.91003H25.2451V17.53H26.7651V9.91003Z" />
    <path d="M25.2451 6.85999H23.7151V9.90999H25.2451V6.85999Z" />
    <path d="M23.7151 5.33002H22.1951V6.86002H23.7151V5.33002Z" />
    <path d="M22.1952 3.81H20.6752V5.33H22.1952V3.81Z" />
    <path d="M20.6751 6.85999H19.1451V9.90999H20.6751V6.85999Z" />
    <path
      d="M19.1451 20.57H20.6751V17.53H19.1451V14.48H22.2001V12.95H19.1501V9.91H17.6301V8.38H16.1001V9.91H11.5301V8.38H10.0001V9.91H8.47506V12.95H5.43506V14.48H8.47506V17.53H6.95506V20.57H8.47506V19.05H11.5251V20.57H16.1001V19.05H19.1501L19.1451 20.57ZM17.6251 14.48H14.5751V19.05H13.0551V14.48H10.0001V12.95H17.6201L17.6251 14.48Z"
    />
    <path d="M20.6751 2.29004H17.6251V3.81004H20.6751V2.29004Z" />
    <path d="M17.6251 25.14H10.0051V26.67H17.6251V25.14Z" />
    <path
      d="M16.0951 8.38002V6.86002H17.6251V5.33002H14.5751V6.86002H13.0551V5.33002H10.0051V6.86002H11.5251V8.38002H16.0951Z"
    />
    <path d="M17.6251 0.76001H10.0051V2.29001H17.6251V0.76001Z" />
    <path d="M10.0051 23.62H6.95508V25.14H10.0051V23.62Z" />
    <path d="M10.0051 2.29004H6.95508V3.81004H10.0051V2.29004Z" />
    <path d="M8.47508 6.85999H6.95508V9.90999H8.47508V6.85999Z" />
    <path d="M6.95506 22.1H5.43506V23.62H6.95506V22.1Z" />
    <path d="M6.95506 3.81H5.43506V5.33H6.95506V3.81Z" />
    <path d="M5.43515 20.57H3.90515V22.1H5.43515V20.57Z" />
    <path d="M5.43515 5.33002H3.90515V6.86002H5.43515V5.33002Z" />
    <path d="M3.90513 17.53H2.38513V20.57H3.90513V17.53Z" />
    <path d="M3.90513 6.85999H2.38513V9.90999H3.90513V6.85999Z" />
    <path d="M2.38511 9.91003H0.865112V17.53H2.38511V9.91003Z" />
  </g>
  <defs>
    <clipPath id="clip0_1128_5033">
      <rect width="32" height="32" fill="white" transform="translate(0.100098)" />
    </clipPath>
  </defs>
</svg>