<svg width="33" height="32" viewBox="0 0 33 32" fill="currentColor"
  xmlns="http://www.w3.org/2000/svg">
  <g clip-path="url(#clip0_1128_4999)">
    <path
      d="M1.6201 31.24H30.5701V29.71H32.1001V25.14H30.5701V28.19H1.6201V25.14H0.100098V29.71H1.6201V31.24Z"
    />
    <path d="M30.57 22.1H29.05V25.14H30.57V22.1Z" />
    <path d="M27.5301 19.05V20.57H24.4801V22.1H29.0501V19.05H27.5301Z" />
    <path d="M29.0502 14.48H27.5302V16H29.0502V14.48Z" />
    <path d="M29.0502 9.9V11.43H27.5302V12.95H30.5702V8.38H27.5302V9.9H29.0502Z" />
    <path d="M29.0502 5.33002H27.5302V6.86002H29.0502V5.33002Z" />
    <path d="M27.5301 16H26.0001V17.52H27.5301V16Z" />
    <path d="M27.5301 12.95H26.0001V14.48H27.5301V12.95Z" />
    <path d="M27.5301 6.85999H26.0001V8.37999H27.5301V6.85999Z" />
    <path d="M27.5301 3.81H26.0001V5.33H27.5301V3.81Z" />
    <path d="M26.0001 17.52H24.4801V19.05H26.0001V17.52Z" />
    <path d="M26.0001 2.29004H24.4801V3.81004H26.0001V2.29004Z" />
    <path d="M24.4801 16H22.9501V17.52H24.4801V16Z" />
    <path d="M24.4801 3.81H22.9501V5.33H24.4801V3.81Z" />
    <path d="M21.4301 19.05H19.9101V17.52H18.3801V20.57H22.9501V17.52H21.4301V19.05Z" />
    <path
      d="M22.9501 6.85999H18.3801V8.37999H16.8601V12.95H18.3801V14.48H22.9501V12.95H24.4801V8.37999H22.9501V6.85999ZM22.9501 11.43H21.4301V12.95H19.9101V11.43H18.3801V9.89998H19.9101V8.37999H21.4301V9.89998H22.9501V11.43Z"
    />
    <path d="M19.9101 2.29001H21.4301V3.81001H22.9501V0.76001H18.3801V3.81001H19.9101V2.29001Z"
    />
    <path d="M18.3801 16H16.8601V17.52H18.3801V16Z" />
    <path d="M18.3801 3.81H16.8601V5.33H18.3801V3.81Z" />
    <path d="M18.3801 25.14H13.8101V26.67H18.3801V25.14Z" />
    <path d="M16.8601 17.52H15.3401V19.05H16.8601V17.52Z" />
    <path d="M16.8601 2.29004H15.3401V3.81004H16.8601V2.29004Z" />
    <path d="M15.3401 16H13.8101V17.52H15.3401V16Z" />
    <path d="M15.3401 12.95H13.8101V14.48H15.3401V12.95Z" />
    <path d="M15.3401 6.85999H13.8101V8.37999H15.3401V6.85999Z" />
    <path d="M15.3401 3.81H13.8101V5.33H15.3401V3.81Z" />
    <path d="M13.81 14.48H12.29V16H13.81V14.48Z" />
    <path d="M12.2901 11.43V9.9H13.8101V8.38H10.7601V12.95H13.8101V11.43H12.2901Z" />
    <path d="M13.81 5.33002H12.29V6.86002H13.81V5.33002Z" />
    <path d="M10.76 3.81H4.67004V5.33H10.76V3.81Z" />
    <path d="M10.7601 22.1V20.57H4.67015V5.33002H3.15015V22.1H10.7601Z" />
    <path d="M3.15012 22.1H1.62012V25.14H3.15012V22.1Z" />
  </g>
  <defs>
    <clipPath id="clip0_1128_4999">
      <rect width="32" height="32" fill="white" transform="translate(0.100098)" />
    </clipPath>
  </defs>
</svg>