<svg width="33" height="32" viewBox="0 0 33 32" fill="currentColor"
  xmlns="http://www.w3.org/2000/svg">
  <path d="M31.3252 25.9H29.8052V28.95H31.3252V25.9Z" />
  <path d="M29.8051 24.38H26.7551V25.9H29.8051V24.38Z" />
  <path d="M29.8051 28.95H26.7551V30.47H29.8051V28.95Z" />
  <path d="M26.7551 22.85H23.7051V24.38H26.7551V22.85Z" />
  <path d="M26.7551 6.09003H25.2351V13.71H26.7551V6.09003Z" />
  <path d="M26.7551 30.47H6.94507V32H26.7551V30.47Z" />
  <path d="M25.2351 13.71H23.7051V18.28H25.2351V13.71Z" />
  <path d="M25.2351 3.03998H23.7051V6.08998H25.2351V3.03998Z" />
  <path d="M23.7052 18.28H22.1852V21.33H23.7052V18.28Z" />
  <path d="M22.1852 21.33H20.6652V24.38H22.1852V21.33Z" />
  <path d="M23.7052 1.52002H20.6652V3.04002H23.7052V1.52002Z" />
  <path d="M20.6651 24.38H19.1351V25.9H20.6651V24.38Z" />
  <path d="M20.6651 6.09003H19.1351V7.61003H20.6651V6.09003Z" />
  <path d="M19.1351 25.9H17.6151V27.42H19.1351V25.9Z" />
  <path d="M17.6151 27.42H16.0851V28.95H17.6151V27.42Z" />
  <path d="M16.0851 25.9H14.5651V27.42H16.0851V25.9Z" />
  <path d="M20.6652 0H13.0452V1.52H20.6652V0Z" />
  <path d="M14.5652 24.38H13.0452V25.9H14.5652V24.38Z" />
  <path
    d="M13.0451 13.71H14.5651V15.23H19.1351V13.71H20.6651V12.19H22.1851V7.61001H20.6651V10.66H19.1351V7.61001H17.6151V6.09001H19.1351V4.57001H14.5651V6.09001H13.0451V7.61001H11.5151V12.19H13.0451V13.71Z" />
  <path d="M13.0451 21.33H11.5151V24.38H13.0451V21.33Z" />
  <path d="M13.0451 1.52002H9.99512V3.04002H13.0451V1.52002Z" />
  <path d="M11.5151 18.28H9.99512V21.33H11.5151V18.28Z" />
  <path d="M9.99507 22.85H6.94507V24.38H9.99507V22.85Z" />
  <path d="M9.99509 13.71H8.46509V18.28H9.99509V13.71Z" />
  <path d="M9.99509 3.03998H8.46509V6.08998H9.99509V3.03998Z" />
  <path d="M8.46507 6.09003H6.94507V13.71H8.46507V6.09003Z" />
  <path d="M6.94514 28.95H3.89514V30.47H6.94514V28.95Z" />
  <path d="M6.94514 24.38H3.89514V25.9H6.94514V24.38Z" />
  <path d="M3.89512 25.9H2.37512V28.95H3.89512V25.9Z" />
</svg>