<svg width="33" height="32" viewBox="0 0 33 32" fill="currentColor"
  xmlns="http://www.w3.org/2000/svg">
  <g clip-path="url(#clip0_1128_19677)">
    <path d="M32.6001 12.19H31.0701V19.81H32.6001V12.19Z" />
    <path d="M31.07 19.81H29.55V22.86H31.07V19.81Z" />
    <path d="M31.07 9.14H29.55V12.19H31.07V9.14Z" />
    <path d="M29.5502 22.86H28.0302V25.9H29.5502V22.86Z" />
    <path d="M29.5502 6.09H28.0302V9.14H29.5502V6.09Z" />
    <path d="M31.0701 4.57V3.05H24.9801V9.14H26.5001V6.09H28.0301V4.57H31.0701Z" />
    <path d="M28.0301 25.9H26.5001V27.43H28.0301V25.9Z" />
    <path d="M26.5001 27.43H23.4501V28.95H26.5001V27.43Z" />
    <path d="M23.4501 19.81H21.9301V21.33H23.4501V19.81Z" />
    <path d="M23.4502 28.95H20.4102V30.48H23.4502V28.95Z" />
    <path d="M20.41 19.81H15.84V21.33H14.31V22.86H12.79V24.38H20.41V22.86H21.93V21.33H20.41V19.81Z" />
    <path d="M20.41 30.48H12.79V32H20.41V30.48Z" />
    <path
      d="M20.41 9.14V7.62H12.79V9.14H17.36V10.67H15.84V12.19H17.36V13.71H20.41V16.76H21.93V15.24H23.45V19.81H24.98V12.19H23.45V10.67H21.93V9.14H20.41Z" />
    <path d="M20.41 0H12.79V1.52H20.41V0Z" />
    <path
      d="M14.3101 18.28V16.76H15.8401V13.71H14.3101V10.67H12.7901V9.14H11.2601V10.67H9.74009V12.19H8.22009V19.81H9.74009V21.33H11.2601V22.86H12.7901V18.28H14.3101Z" />
    <path d="M12.7901 1.52H9.74011V3.05H12.7901V1.52Z" />
    <path d="M9.74006 3.05H6.69006V4.57H9.74006V3.05Z" />
    <path d="M2.12012 27.43V28.95H8.22012V22.86H6.69012V25.9H5.17012V27.43H2.12012Z" />
    <path d="M6.69004 4.57H5.17004V6.09H6.69004V4.57Z" />
    <path d="M5.17015 22.86H3.65015V25.9H5.17015V22.86Z" />
    <path d="M5.17015 6.09H3.65015V9.14H5.17015V6.09Z" />
    <path d="M3.65012 19.81H2.12012V22.86H3.65012V19.81Z" />
    <path d="M3.65012 9.14H2.12012V12.19H3.65012V9.14Z" />
    <path d="M2.1201 12.19H0.600098V19.81H2.1201V12.19Z" />
  </g>
  <defs>
    <clipPath id="clip0_1128_19677">
      <rect width="32" height="32" fill="white" transform="translate(0.600098)" />
    </clipPath>
  </defs>
</svg>