<svg width="33" height="33" viewBox="0 0 33 33" fill="currentColor"
  xmlns="http://www.w3.org/2000/svg">
  <g clip-path="url(#clip0_1128_6766)">
    <path d="M32.1654 8.41943H30.6454V9.93943H32.1654V8.41943Z" />
    <path d="M30.6454 9.93945H27.5954V11.4695H30.6454V9.93945Z" />
    <path d="M30.6454 6.89941H27.5954V8.41941H30.6454V6.89941Z" />
    <path
      d="M24.5454 23.6595V25.1795H21.5054V26.7095H18.4554V28.2295H15.4054V26.7095H12.3554V25.1795H9.31543V23.6595H6.26543V22.1295H1.69543V23.6595H3.21543V25.1795H6.26543V26.7095H9.31543V28.2295H12.3554V29.7495H15.4054V31.2795H18.4554V29.7495H21.5054V28.2295H24.5454V26.7095H27.5954V25.1795H30.6454V23.6595H32.1654V22.1295H27.5954V23.6595H24.5454Z"
    />
    <path
      d="M24.5454 19.0894V20.6094H21.5054V22.1294H18.4554V23.6594H15.4054V22.1294H12.3554V20.6094H9.31543V19.0894H6.26543V17.5594H1.69543V19.0894H3.21543V20.6094H6.26543V22.1294H9.31543V23.6594H12.3554V25.1794H15.4054V26.7094H18.4554V25.1794H21.5054V23.6594H24.5454V22.1294H27.5954V20.6094H30.6454V19.0894H32.1654V17.5594H27.5954V19.0894H24.5454Z"
    />
    <path
      d="M24.5454 14.5194V16.0394H21.5054V17.5594H18.4554V19.0894H15.4054V17.5594H12.3554V16.0394H9.31543V14.5194H6.26543V12.9894H1.69543V14.5194H3.21543V16.0394H6.26543V17.5594H9.31543V19.0894H12.3554V20.6094H15.4054V22.1294H18.4554V20.6094H21.5054V19.0894H24.5454V17.5594H27.5954V16.0394H30.6454V14.5194H32.1654V12.9894H27.5954V14.5194H24.5454Z"
    />
    <path d="M27.5954 11.4694H24.5454V12.9894H27.5954V11.4694Z" />
    <path d="M27.5954 5.36945H24.5454V6.89945H27.5954V5.36945Z" />
    <path d="M24.5454 12.9894H21.5054V14.5194H24.5454V12.9894Z" />
    <path d="M24.5454 3.84943H21.5054V5.36943H24.5454V3.84943Z" />
    <path d="M21.5054 14.5194H18.4554V16.0394H21.5054V14.5194Z" />
    <path d="M21.5054 2.32947H18.4554V3.84947H21.5054V2.32947Z" />
    <path d="M18.4554 16.0394H15.4054V17.5594H18.4554V16.0394Z" />
    <path d="M18.4554 0.799438H15.4054V2.32944H18.4554V0.799438Z" />
    <path d="M15.4054 14.5194H12.3554V16.0394H15.4054V14.5194Z" />
    <path d="M15.4054 2.32947H12.3554V3.84947H15.4054V2.32947Z" />
    <path d="M12.3554 12.9894H9.31543V14.5194H12.3554V12.9894Z" />
    <path d="M12.3554 3.84943H9.31543V5.36943H12.3554V3.84943Z" />
    <path d="M9.31544 11.4694H6.26544V12.9894H9.31544V11.4694Z" />
    <path d="M9.31544 5.36945H6.26544V6.89945H9.31544V5.36945Z" />
    <path d="M6.26542 9.93945H3.21542V11.4695H6.26542V9.93945Z" />
    <path d="M6.26542 6.89941H3.21542V8.41941H6.26542V6.89941Z" />
    <path d="M3.21543 8.41943H1.69543V9.93943H3.21543V8.41943Z" />
  </g>
  <defs>
    <clipPath id="clip0_1128_6766">
      <rect width="32" height="32" fill="white" transform="translate(0.93042 0.0394287)" />
    </clipPath>
  </defs>
</svg>