<svg width="20" height="20" viewBox="0 0 20 20" fill="currentColor"
  xmlns="http://www.w3.org/2000/svg">
  <path
    d="M12.834 3.83301V4.5H12V7H11.167V9.5H10.334V11.167H9.5V13.667H8.66699V16.167H7.16699V15.5H8V13H8.83398V10.5H9.66699V8.83301H10.5V6.33301H11.334V3.83301H12.834Z"
    stroke="white" />
  <path
    d="M15.334 13V13.666H14.667V13H15.334ZM16.167 12.166V12.833H15.5V12.166H16.167ZM17 11.333V12H16.334V11.333H17ZM17.834 8.83301V9.66602H18.667V10.333H17.834V11.166H17.167V8.83301H17.834ZM17 8V8.66602H16.334V8H17ZM16.167 7.16602V7.83301H15.5V7.16602H16.167ZM15.334 6.33301V7H14.667V6.33301H15.334Z"
    stroke="white" />
  <path
    d="M5.33301 13V13.666H4.66602V13H5.33301ZM4.5 12.166V12.833H3.83301V12.166H4.5ZM3.66602 11.333V12H3V11.333H3.66602ZM2.83301 8.83301V11.166H2.16602V10.333H1.33301V9.66602H2.16602V8.83301H2.83301ZM3.66602 8V8.66602H3V8H3.66602ZM4.5 7.16602V7.83301H3.83301V7.16602H4.5ZM5.33301 6.33301V7H4.66602V6.33301H5.33301Z"
    stroke="white" />
</svg>