<svg width="33" height="32" viewBox="0 0 33 32" fill="currentColor"
  xmlns="http://www.w3.org/2000/svg">
  <g clip-path="url(#clip0_1135_3896)">
    <path
      d="M31.3201 18.28V7.62H29.8001V16.76H28.2801V15.24H26.7501V27.43H28.2801V25.9H31.3201V24.38H32.8501V18.28H31.3201Z" />
    <path d="M26.7501 12.1899H25.2301V15.2399H26.7501V12.1899Z" />
    <path
      d="M6.94006 27.4301V28.9501H8.47006V30.4801H9.99006V28.9501H23.7001V30.4801H25.2301V28.9501H26.7501V27.4301H6.94006Z" />
    <path d="M25.2301 18.28H23.7001V21.33H25.2301V18.28Z" />
    <path d="M25.2301 10.67H23.7001V12.19H25.2301V10.67Z" />
    <path d="M23.7002 16.76H20.6602V18.28H23.7002V16.76Z" />
    <path d="M23.7001 30.48H9.99011V32H23.7001V30.48Z" />
    <path d="M23.7002 21.33H20.6602V22.86H23.7002V21.33Z" />
    <path d="M20.6601 18.28H19.1301V21.33H20.6601V18.28Z" />
    <path d="M20.6601 1.52002H19.1301V3.05002H20.6601V1.52002Z" />
    <path d="M19.1301 24.38H14.5601V25.9H19.1301V24.38Z" />
    <path d="M19.1301 0H14.5601V1.52H19.1301V0Z" />
    <path d="M14.56 18.28H13.04V21.33H14.56V18.28Z" />
    <path d="M14.56 1.52002H13.04V3.05002H14.56V1.52002Z" />
    <path d="M13.0401 16.76H9.99011V18.28H13.0401V16.76Z" />
    <path
      d="M23.7001 10.67V9.14005H17.6101V4.57005H19.1301V3.05005H14.5601V4.57005H16.0801V9.14005H9.99011V10.67H23.7001Z" />
    <path d="M13.0401 21.33H9.99011V22.86H13.0401V21.33Z" />
    <path d="M9.99009 18.28H8.47009V21.33H9.99009V18.28Z" />
    <path d="M9.99009 10.67H8.47009V12.19H9.99009V10.67Z" />
    <path d="M8.47006 12.1899H6.94006V15.2399H8.47006V12.1899Z" />
    <path
      d="M6.9401 15.24H5.4201V16.76H3.8901V7.62H2.3701V18.28H0.850098V24.38H2.3701V25.9H5.4201V27.43H6.9401V15.24Z" />
  </g>
  <defs>
    <clipPath id="clip0_1135_3896">
      <rect width="32" height="32" fill="white" transform="translate(0.850098)" />
    </clipPath>
  </defs>
</svg>