<svg width="14" height="14" viewBox="0 0 14 14" fill="none" xmlns="http://www.w3.org/2000/svg">
<path d="M1.66666 12.6667V1.66667H12.6667V12.6667H1.66666Z" fill="white"/>
<path d="M9.66666 4.66667H8.66666V5.66667H9.66666V4.66667Z" fill="black"/>
<path d="M9.66666 8.66667H8.66666V9.66667H9.66666V8.66667Z" fill="black"/>
<path d="M8.66666 5.66667H7.66666V6.66667H8.66666V5.66667Z" fill="black"/>
<path d="M8.66666 7.66667H7.66666V8.66667H8.66666V7.66667Z" fill="black"/>
<path d="M5.66666 4.66667H4.66666V5.66667H5.66666V4.66667Z" fill="black"/>
<path d="M5.66666 8.66667H4.66666V9.66667H5.66666V8.66667Z" fill="black"/>
<path d="M4.66666 3.66667H3.66666V4.66667H4.66666V3.66667Z" fill="black"/>
<path d="M10.6667 3.66667H9.66666V4.66667H10.6667V3.66667Z" fill="black"/>
<path d="M6.66666 7.66667H5.66666V8.66667H6.66666V7.66667Z" fill="black"/>
<path d="M6.66666 5.66667H5.66666V6.66667H6.66666V5.66667Z" fill="black"/>
<path d="M7.66666 6.66667H6.66666V7.66667H7.66666V6.66667Z" fill="black"/>
<path d="M4.66666 9.66667H3.66666V10.6667H4.66666V9.66667Z" fill="black"/>
<path d="M10.6667 9.66667H9.66666V10.6667H10.6667V9.66667Z" fill="black"/>
<path d="M12.6667 1.66667V0.666672H1.66666V1.66667L12.6667 1.66667Z" fill="black"/>
<path d="M0.666656 12.6667H1.66666V1.66667H0.666656V12.6667Z" fill="black"/>
<path d="M12.6667 13.6667V12.6667H1.66666V13.6667H12.6667Z" fill="black"/>
<path d="M13.6667 1.66667L12.6667 1.66667V12.6667H13.6667V1.66667Z" fill="black"/>
</svg>
