<svg width="16" height="16" viewBox="0 0 16 16" fill="currentColor"
  xmlns="http://www.w3.org/2000/svg">
  <path
    d="M8 3C10.7614 3 13 5.23858 13 8C13 10.7614 10.7614 13 8 13C5.23858 13 3 10.7614 3 8C3 5.23858 5.23858 3 8 3ZM8 4.25C5.92894 4.25 4.25 5.92894 4.25 8C4.25 10.0711 5.92894 11.75 8 11.75C10.0711 11.75 11.75 10.0711 11.75 8C11.75 5.92893 10.0711 4.25 8 4.25ZM8 5.5C9.38071 5.5 10.5 6.61929 10.5 8C10.5 9.38071 9.38071 10.5 8 10.5C6.61929 10.5 5.5 9.38071 5.5 8C5.5 6.61929 6.61929 5.5 8 5.5Z"
  />
</svg>