<svg width="33" height="33" viewBox="0 0 33 33" fill="currentColor"
  xmlns="http://www.w3.org/2000/svg">
  <path d="M31.9985 4.44526H30.4685V28.8253H31.9985V4.44526Z" />
  <path d="M30.4685 28.8253H28.9485V30.3453H30.4685V28.8253Z" />
  <path d="M30.4685 2.91525H28.9485V4.44525H30.4685V2.91525Z" />
  <path d="M28.9485 30.3453H4.56854V31.8753H28.9485V30.3453Z" />
  <path
    d="M25.8985 21.2053H7.61855V22.7253H6.08854V25.7753H7.61855V24.2553H25.8985V25.7753H27.4285V22.7253H25.8985V21.2053Z"
  />
  <path
    d="M25.8985 13.5853H7.61855V15.1053H6.08854V18.1553H7.61855V16.6353H25.8985V18.1553H27.4285V15.1053H25.8985V13.5853Z"
  />
  <path
    d="M25.8985 5.96526H7.61855V7.48526H6.08854V10.5353H7.61855V9.01526H25.8985V10.5353H27.4285V7.48526H25.8985V5.96526Z"
  />
  <path d="M25.8985 25.7753H7.61855V27.2953H25.8985V25.7753Z" />
  <path d="M25.8985 18.1553H7.61855V19.6753H25.8985V18.1553Z" />
  <path d="M25.8985 10.5353H7.61855V12.0653H25.8985V10.5353Z" />
  <path d="M28.9485 1.39526H4.56854V2.91526H28.9485V1.39526Z" />
  <path d="M4.56855 28.8253H3.04855V30.3453H4.56855V28.8253Z" />
  <path d="M4.56855 2.91525H3.04855V4.44525H4.56855V2.91525Z" />
  <path d="M3.04855 4.44526H1.51855V28.8253H3.04855V4.44526Z" />
</svg>