<svg width="18" height="18" viewBox="0 0 18 18" fill="none" xmlns="http://www.w3.org/2000/svg">
<path d="M15.1331 13.7918C15.659 14.2048 16.4273 14.1154 16.765 13.5374C17.4161 12.423 17.8237 11.177 17.9543 9.88245C18.1256 8.18401 17.8132 6.47165 17.0534 4.94409C16.2935 3.41654 15.1173 2.13641 13.6613 1.25225C12.5515 0.578371 11.3139 0.15559 10.0345 0.00708269C9.37094 -0.0699256 8.83768 0.491935 8.85049 1.16172C8.86331 1.83153 9.41936 2.35275 10.0783 2.46253C10.8991 2.59926 11.6904 2.89153 12.4085 3.32756C13.4731 3.97408 14.3332 4.91015 14.8889 6.02717C15.4445 7.14416 15.6729 8.39628 15.5476 9.63824C15.4631 10.4758 15.2201 11.2857 14.8353 12.0256C14.5265 12.6196 14.6073 13.3786 15.1331 13.7918Z" fill="#20FBFD"/>
<path d="M6.05957 1.73793C5.80745 1.11755 5.09625 0.812793 4.51704 1.14648C3.7833 1.56923 3.11089 2.09466 2.52078 2.70853C1.65008 3.61432 0.977807 4.69265 0.547095 5.87435C0.116383 7.05607 -0.0632595 8.31501 0.0197029 9.57044C0.102681 10.8259 0.446402 12.05 1.02885 13.1644C1.61129 14.2787 2.41959 15.2586 3.40186 16.0413C4.38413 16.8239 5.51869 17.3919 6.73272 17.7089C7.94674 18.0258 9.21344 18.0848 10.4515 17.8818C11.2906 17.7443 12.104 17.4886 12.868 17.1238C13.4712 16.8359 13.6258 16.0759 13.2605 15.515C12.8952 14.9542 12.1482 14.8084 11.5316 15.0661C11.0608 15.2628 10.5675 15.4046 10.0614 15.4875C9.15608 15.6359 8.22984 15.5928 7.34211 15.3611C6.45436 15.1293 5.62475 14.7139 4.90647 14.1417C4.18821 13.5694 3.59717 12.8528 3.17127 12.038C2.74536 11.2232 2.49402 10.328 2.43335 9.41C2.37268 8.49199 2.50404 7.57141 2.81899 6.7073C3.13394 5.84322 3.62552 5.05471 4.26221 4.39236C4.61813 4.02211 5.01498 3.69586 5.44418 3.41945C6.00624 3.05748 6.31168 2.35832 6.05957 1.73793Z" fill="#20FBFD"/>
<path d="M9.24988 11.4807C10.7687 11.4807 11.9999 10.2458 11.9999 8.72258C11.9999 7.19934 10.7687 5.96449 9.24988 5.96449C7.73109 5.96449 6.49987 7.19934 6.49987 8.72258C6.49987 10.2458 7.73109 11.4807 9.24988 11.4807Z" fill="#20FBFD"/>
</svg>
