<svg width="32" height="27" viewBox="0 0 32 27" fill="none" xmlns="http://www.w3.org/2000/svg">
<path fill-rule="evenodd" clip-rule="evenodd" d="M23.9999 27H7.99991L0 13.5L7.99991 0H23.9999L32 13.5L23.9999 27ZM9.23075 24.9001H22.4614L29.2307 13.5L22.4614 2.40015H9.23075L2.4615 13.5L9.23075 24.9001Z" fill="#0000FF" fill-opacity="0.86"/>
<path fill-rule="evenodd" clip-rule="evenodd" d="M20.6 23H10.1L5 13.3442L10.1 4H20.6L26 13.3442L20.6 23ZM11.2999 20.8196H19.1L23.2999 13.6558L19.1 6.49194H11.2999L7.39996 13.6558L11.2999 20.8196Z" fill="#0000FF" fill-opacity="0.86"/>
<path d="M11.5 6.5L7.5 13.5L11.5 21H19L23.5 13.5L19 6.5H11.5Z" fill="white" stroke="white"/>
</svg>
